<svg width="29" height="30" viewBox="0 0 29 30" fill="none" xmlns="http://www.w3.org/2000/svg">
<path d="M14.5 0.5C12.5958 0.5 10.7103 0.884365 8.95109 1.63115C7.19187 2.37793 5.5934 3.47251 4.24695 4.85239C1.52767 7.63918 0 11.4189 0 15.36C0 21.9281 4.1615 27.5006 9.918 29.477C10.643 29.5959 10.875 29.1352 10.875 28.734V26.2226C6.8585 27.1142 6.003 24.2314 6.003 24.2314C5.336 22.5076 4.3935 22.047 4.3935 22.047C3.074 21.1257 4.495 21.1554 4.495 21.1554C5.945 21.2594 6.7135 22.686 6.7135 22.686C7.975 24.9447 10.1065 24.276 10.933 23.9193C11.0635 22.9534 11.4405 22.2996 11.8465 21.9281C8.6275 21.5566 5.249 20.2786 5.249 14.617C5.249 12.9675 5.8 11.645 6.7425 10.5899C6.5975 10.2184 6.09 8.673 6.8875 6.6669C6.8875 6.6669 8.1055 6.26568 10.875 8.18262C12.0205 7.8557 13.2675 7.69224 14.5 7.69224C15.7325 7.69224 16.9795 7.8557 18.125 8.18262C20.8945 6.26568 22.1125 6.6669 22.1125 6.6669C22.91 8.673 22.4025 10.2184 22.2575 10.5899C23.2 11.645 23.751 12.9675 23.751 14.617C23.751 20.2935 20.358 21.5417 17.1245 21.9132C17.6465 22.3739 18.125 23.2804 18.125 24.6623V28.734C18.125 29.1352 18.357 29.6107 19.0965 29.477C24.853 27.4857 29 21.9281 29 15.36C29 13.4085 28.6249 11.4762 27.8963 9.67332C27.1676 7.87042 26.0995 6.23227 24.753 4.85239C23.4066 3.47251 21.8081 2.37793 20.0489 1.63115C18.2897 0.884365 16.4042 0.5 14.5 0.5Z" fill="white"/>
</svg>
