<svg width="256" height="256" viewBox="0 0 256 256" fill="none" xmlns="http://www.w3.org/2000/svg">
<rect width="256" height="256" rx="16" fill="white"/>
<rect y="80.6001" width="256" height="94.8148" rx="3.2" fill="white"/>
<mask id="mask0_1940_1555" style="mask-type:alpha" maskUnits="userSpaceOnUse" x="28" y="103" width="200" height="50">
<path d="M33.6531 151.061H31.2696C30.7572 151.061 30.3403 150.644 30.3403 150.132C30.3403 150.126 30.3359 150.122 30.3305 150.122H28.4541C28.4487 150.122 28.4443 150.126 28.4443 150.132C28.4443 151.69 29.7118 152.957 31.2696 152.957H33.6531C35.211 152.957 36.4784 151.69 36.4784 150.132C36.4784 148.574 35.211 147.306 33.6531 147.306H31.2696C30.7572 147.306 30.3403 146.889 30.3403 146.377C30.3403 145.865 30.7572 145.448 31.2696 145.448H33.6531C34.1656 145.448 34.5824 145.865 34.5824 146.377C34.5824 146.382 34.5868 146.387 34.5922 146.387H36.4686C36.474 146.387 36.4784 146.382 36.4784 146.377C36.4784 144.819 35.211 143.552 33.6531 143.552H31.2696C29.7117 143.552 28.4443 144.819 28.4443 146.377C28.4443 147.935 29.7118 149.202 31.2696 149.202H33.6531C34.1656 149.202 34.5824 149.619 34.5824 150.132C34.5824 150.644 34.1656 151.061 33.6531 151.061Z" fill="white"/>
<path d="M40.4981 152.957H42.4687C42.473 152.957 42.4768 152.954 42.478 152.95L42.8892 151.672H46.1178L46.529 152.95C46.5303 152.954 46.534 152.957 46.5383 152.957H48.5089C48.5121 152.957 48.515 152.956 48.5169 152.953C48.5187 152.951 48.5192 152.947 48.5183 152.944L45.4983 143.559C45.4969 143.555 45.4932 143.552 45.4889 143.552H43.5183C43.514 143.552 43.5102 143.555 43.509 143.559L40.4888 152.944C40.4878 152.947 40.4883 152.951 40.4902 152.953C40.492 152.956 40.4949 152.957 40.4981 152.957ZM43.4997 149.775L44.5035 146.655L45.5074 149.775H43.4997Z" fill="white"/>
<path d="M53.2129 152.957H55.0893C55.0947 152.957 55.0991 152.952 55.0991 152.947V143.562C55.0991 143.556 55.0947 143.552 55.0893 143.552H53.2129C53.2075 143.552 53.2031 143.556 53.2031 143.562V152.947C53.2031 152.952 53.2075 152.957 53.2129 152.957Z" fill="white"/>
<path d="M59.794 145.448H62.8511V152.947C62.8511 152.952 62.8555 152.957 62.8609 152.957H64.738C64.7434 152.957 64.7478 152.952 64.7478 152.947V145.448H67.805C67.8104 145.448 67.8148 145.444 67.8148 145.439V143.562C67.8148 143.556 67.8104 143.552 67.805 143.552H59.794C59.7886 143.552 59.7842 143.556 59.7842 143.562V145.439C59.7842 145.444 59.7885 145.448 59.794 145.448Z" fill="white"/>
<path d="M69.959 152.957H71.9296C71.9339 152.957 71.9377 152.954 71.939 152.95L72.3502 151.672H75.5787L75.9899 152.95C75.9913 152.954 75.9949 152.957 75.9993 152.957H77.9699C77.973 152.957 77.9759 152.956 77.9778 152.953C77.9797 152.951 77.9801 152.947 77.9793 152.944L74.9592 143.559C74.9579 143.555 74.9542 143.552 74.9499 143.552H72.9793C72.9749 143.552 72.9712 143.555 72.9699 143.559L69.9497 152.944C69.9487 152.947 69.9492 152.951 69.9511 152.953C69.953 152.956 69.9559 152.957 69.959 152.957ZM72.9606 149.775L73.9645 146.655L74.9684 149.775H72.9606Z" fill="white"/>
<path d="M90.6875 152.947C90.6875 152.953 90.6919 152.957 90.6973 152.957H92.574C92.5794 152.957 92.5838 152.953 92.5838 152.947V143.562C92.5838 143.556 92.5794 143.552 92.574 143.552H90.3676C90.3642 143.552 90.361 143.554 90.3593 143.557L87.6239 147.98L84.8885 143.557C84.8868 143.554 84.8836 143.552 84.8802 143.552H82.6738C82.6684 143.552 82.6641 143.556 82.6641 143.562V152.947C82.6641 152.953 82.6684 152.957 82.6738 152.957H84.5497C84.5551 152.957 84.5595 152.953 84.5595 152.947V146.629L87.6156 151.571C87.6191 151.577 87.6288 151.577 87.6323 151.571L90.6876 146.631L90.6875 152.947Z" fill="white"/>
<path d="M97.2803 152.957H99.2509C99.2552 152.957 99.259 152.954 99.2602 152.95L99.6714 151.672H102.9L103.311 152.95C103.313 152.954 103.316 152.957 103.321 152.957H105.291C105.294 152.957 105.297 152.956 105.299 152.953C105.301 152.951 105.301 152.947 105.301 152.944L102.28 143.559C102.279 143.555 102.275 143.552 102.271 143.552H100.301C100.296 143.552 100.292 143.555 100.291 143.559L97.271 152.944C97.27 152.947 97.2705 152.951 97.2724 152.953C97.2743 152.956 97.2772 152.957 97.2803 152.957ZM100.282 149.775L101.286 146.655L102.29 149.775H100.282Z" fill="white"/>
<path d="M125.581 143.552H123.705C123.7 143.552 123.695 143.556 123.695 143.562V148.942C123.695 150.11 122.745 151.061 121.576 151.061C120.407 151.061 119.456 150.11 119.456 148.942V143.562C119.456 143.556 119.452 143.552 119.447 143.552H117.57C117.565 143.552 117.561 143.556 117.561 143.562V148.942C117.561 151.156 119.362 152.957 121.576 152.957C123.79 152.957 125.591 151.156 125.591 148.942V143.562C125.591 143.556 125.587 143.552 125.581 143.552Z" fill="white"/>
<path d="M130.285 152.957H132.161C132.166 152.957 132.171 152.953 132.171 152.947V146.63L136.081 152.952C136.083 152.955 136.086 152.957 136.09 152.957H138.296C138.302 152.957 138.306 152.953 138.306 152.947V143.562C138.306 143.556 138.302 143.552 138.296 143.552H136.419C136.414 143.552 136.41 143.556 136.41 143.562V149.879L132.5 143.557C132.498 143.554 132.495 143.552 132.492 143.552H130.285C130.28 143.552 130.275 143.556 130.275 143.562V152.947C130.275 152.953 130.28 152.957 130.285 152.957Z" fill="white"/>
<path d="M143 152.957H144.876C144.882 152.957 144.886 152.952 144.886 152.947V143.562C144.886 143.556 144.882 143.552 144.876 143.552H143C142.995 143.552 142.99 143.556 142.99 143.562V152.947C142.99 152.952 142.995 152.957 143 152.957Z" fill="white"/>
<path d="M152.601 152.957H154.572C154.576 152.957 154.58 152.954 154.581 152.95L157.601 143.565C157.602 143.562 157.602 143.558 157.6 143.556C157.598 143.553 157.595 143.552 157.592 143.552H155.621C155.617 143.552 155.613 143.555 155.612 143.559L153.587 149.854L151.561 143.559C151.56 143.555 151.556 143.552 151.552 143.552H149.581C149.578 143.552 149.575 143.553 149.573 143.556C149.571 143.559 149.571 143.562 149.572 143.565L152.592 152.95C152.593 152.954 152.597 152.957 152.601 152.957Z" fill="white"/>
<path d="M162.296 152.957H170.307C170.313 152.957 170.317 152.952 170.317 152.947V151.07C170.317 151.065 170.313 151.06 170.307 151.06H164.183V149.203H168.431C168.436 149.203 168.441 149.198 168.441 149.193V147.316C168.441 147.31 168.436 147.306 168.431 147.306H164.183V145.448H170.307C170.313 145.448 170.317 145.444 170.317 145.439V143.562C170.317 143.556 170.313 143.552 170.307 143.552H162.296C162.291 143.552 162.286 143.556 162.286 143.562V152.947C162.286 152.952 162.291 152.957 162.296 152.957Z" fill="white"/>
<path d="M175.011 152.957H176.888C176.893 152.957 176.897 152.953 176.897 152.947V150.901H179.357C179.417 150.901 179.477 150.899 179.536 150.897L180.808 152.952C180.81 152.955 180.813 152.957 180.816 152.957H183.022C183.025 152.957 183.029 152.955 183.03 152.952C183.032 152.949 183.032 152.945 183.03 152.942L181.389 150.288C182.417 149.605 183.031 148.462 183.031 147.227C183.031 145.2 181.383 143.552 179.357 143.552H175.011C175.005 143.552 175.001 143.556 175.001 143.562V152.947C175.001 152.953 175.006 152.957 175.011 152.957ZM180.382 148.679C180.083 148.892 179.728 149.005 179.357 149.005H176.897V145.448H179.357C180.338 145.448 181.135 146.246 181.135 147.227C181.135 147.803 180.854 148.346 180.382 148.679Z" fill="white"/>
<path d="M192.722 151.061H190.339C189.826 151.061 189.41 150.644 189.41 150.132C189.41 150.126 189.405 150.122 189.4 150.122H187.523C187.518 150.122 187.514 150.126 187.514 150.132C187.514 151.69 188.781 152.957 190.339 152.957H192.722C194.28 152.957 195.548 151.69 195.548 150.132C195.548 148.574 194.28 147.306 192.722 147.306H190.339C189.826 147.306 189.41 146.889 189.41 146.377C189.41 145.865 189.826 145.448 190.339 145.448H192.722C193.235 145.448 193.652 145.865 193.652 146.377C193.652 146.382 193.656 146.387 193.662 146.387H195.538C195.543 146.387 195.548 146.382 195.548 146.377C195.548 144.819 194.28 143.552 192.722 143.552H190.339C188.781 143.552 187.514 144.819 187.514 146.377C187.514 147.935 188.781 149.202 190.339 149.202H192.722C193.235 149.202 193.652 149.619 193.652 150.132C193.652 150.644 193.235 151.061 192.722 151.061Z" fill="white"/>
<path d="M200.238 152.957H202.115C202.12 152.957 202.125 152.952 202.125 152.947V143.562C202.125 143.556 202.12 143.552 202.115 143.552H200.238C200.233 143.552 200.229 143.556 200.229 143.562V152.947C200.229 152.952 200.233 152.957 200.238 152.957Z" fill="white"/>
<path d="M206.82 145.448H209.877V152.947C209.877 152.952 209.882 152.957 209.887 152.957H211.764C211.77 152.957 211.774 152.952 211.774 152.947V145.448H214.831C214.837 145.448 214.841 145.444 214.841 145.439V143.562C214.841 143.556 214.837 143.552 214.831 143.552H206.82C206.815 143.552 206.811 143.556 206.811 143.562V145.439C206.811 145.444 206.815 145.448 206.82 145.448Z" fill="white"/>
<path d="M227.554 143.557C227.553 143.554 227.549 143.552 227.546 143.552H225.48C225.476 143.552 225.473 143.554 225.471 143.558L223.541 147.735L221.61 143.558C221.609 143.554 221.605 143.552 221.601 143.552H219.535C219.532 143.552 219.529 143.554 219.527 143.557C219.525 143.559 219.525 143.563 219.526 143.566L222.498 149.999L222.593 150.204V152.947C222.593 152.953 222.597 152.957 222.602 152.957H224.479C224.484 152.957 224.488 152.953 224.488 152.947V150.205L224.583 149.999C224.583 149.999 224.583 149.999 224.583 149.999L227.555 143.566C227.556 143.563 227.556 143.559 227.554 143.557Z" fill="white"/>
<path d="M56.7787 136.238C56.7787 136.258 56.7942 136.273 56.8133 136.273H63.4405C63.4596 136.273 63.475 136.258 63.475 136.238V103.094C63.475 103.075 63.4596 103.06 63.4405 103.06H55.6488C55.6369 103.06 55.6256 103.066 55.6195 103.076L45.9597 118.698L36.2999 103.076C36.2938 103.066 36.2825 103.06 36.2706 103.06H28.4789C28.4598 103.06 28.4443 103.075 28.4443 103.094V136.238C28.4443 136.258 28.4598 136.273 28.4789 136.273H35.1034C35.1224 136.273 35.1379 136.258 35.1379 136.238V113.926L45.9304 131.378C45.9428 131.398 45.9768 131.398 45.9893 131.378L56.779 113.931L56.7787 136.238Z" fill="white"/>
<path d="M110.123 113.384C110.129 113.395 110.14 113.401 110.152 113.401C110.164 113.401 110.175 113.395 110.181 113.384L116.535 103.112C116.541 103.101 116.542 103.088 116.536 103.077C116.53 103.066 116.518 103.059 116.506 103.059H103.799C103.786 103.059 103.775 103.066 103.769 103.077C103.763 103.088 103.763 103.101 103.769 103.112L110.123 113.384ZM110.182 125.947C110.169 125.927 110.136 125.927 110.123 125.947L103.769 136.22C103.763 136.23 103.763 136.244 103.769 136.255C103.775 136.266 103.786 136.272 103.799 136.272H116.506C116.518 136.272 116.53 136.266 116.536 136.255C116.542 136.244 116.541 136.23 116.535 136.22L110.182 125.947ZM106.288 119.649L96.0398 103.075C96.0392 103.074 96.0375 103.074 96.0367 103.073C96.0342 103.069 96.0312 103.068 96.0276 103.065C96.0243 103.063 96.0212 103.062 96.0173 103.061C96.0149 103.061 96.0129 103.058 96.0102 103.058H82.5068C82.5063 103.058 82.5057 103.059 82.5052 103.059H78.3855C78.3706 103.059 78.3571 103.069 78.3526 103.083L67.6871 136.227C67.6838 136.238 67.6858 136.249 67.6921 136.258C67.6985 136.267 67.709 136.272 67.7201 136.272H74.6792C74.6941 136.272 74.7077 136.263 74.7121 136.248L76.1642 131.735H87.566L89.0181 136.248C89.0228 136.263 89.0361 136.272 89.051 136.272H96.0102C96.0124 136.272 96.0146 136.272 96.0168 136.272C96.0254 136.27 96.0323 136.265 96.0373 136.259C96.0373 136.259 96.0378 136.259 96.0381 136.258C96.0384 136.258 96.0381 136.257 96.0384 136.257C96.0386 136.257 96.0392 136.257 96.0395 136.256L106.287 119.686C106.294 119.674 106.294 119.66 106.288 119.649ZM78.32 125.036L81.8651 114.018L85.4102 125.036H78.32Z" fill="white"/>
<path d="M120.754 136.272H127.381C127.4 136.272 127.415 136.257 127.415 136.238V103.093C127.415 103.074 127.4 103.059 127.381 103.059H120.754C120.735 103.059 120.72 103.074 120.72 103.093V136.238C120.72 136.257 120.735 136.272 120.754 136.272Z" fill="white"/>
<path d="M159.952 136.238C159.952 136.258 159.967 136.273 159.986 136.273H166.613C166.632 136.273 166.648 136.258 166.648 136.238V103.094C166.648 103.075 166.632 103.06 166.613 103.06H158.822C158.81 103.06 158.798 103.066 158.792 103.076L149.133 118.698L139.473 103.076C139.467 103.066 139.455 103.06 139.443 103.06H131.652C131.633 103.06 131.617 103.075 131.617 103.094V136.238C131.617 136.258 131.633 136.273 131.652 136.273H138.276C138.295 136.273 138.311 136.258 138.311 136.238V113.926L149.103 131.378C149.116 131.398 149.15 131.398 149.162 131.378L159.952 113.931L159.952 136.238Z" fill="white"/>
<path d="M185.967 122.093V103.093C185.967 103.074 185.951 103.058 185.932 103.058H170.894C170.875 103.058 170.859 103.074 170.859 103.093V122.093C170.859 126.258 174.247 129.646 178.412 129.646C182.578 129.646 185.967 126.258 185.967 122.093ZM227.521 103.06H219.729C219.718 103.06 219.707 103.066 219.7 103.077L210.04 118.699L200.381 103.077C200.374 103.066 200.363 103.06 200.351 103.06H192.56C192.541 103.06 192.525 103.076 192.525 103.095V122.093C192.525 129.873 186.195 136.203 178.415 136.203C178.395 136.203 178.38 136.219 178.38 136.238C178.38 136.257 178.395 136.272 178.415 136.272H192.556C192.558 136.272 192.558 136.274 192.56 136.274H199.184C199.203 136.274 199.219 136.258 199.219 136.239V113.926L210.011 131.378C210.024 131.399 210.057 131.399 210.07 131.378L220.859 113.932V136.239C220.859 136.258 220.875 136.274 220.894 136.274H227.521C227.54 136.274 227.556 136.258 227.556 136.239V103.095C227.556 103.076 227.54 103.06 227.521 103.06Z" fill="white"/>
</mask>
<g mask="url(#mask0_1940_1555)">
<rect y="80.6001" width="256" height="256" fill="url(#paint0_linear_1940_1555)"/>
</g>
<defs>
<linearGradient id="paint0_linear_1940_1555" x1="256" y1="336.6" x2="-52.7805" y2="217.896" gradientUnits="userSpaceOnUse">
<stop stop-color="#63C178"/>
<stop offset="1" stop-color="#34AA8E"/>
</linearGradient>
</defs>
</svg>
